<?xml version="1.0" encoding="UTF-8"?><svg viewBox="0 0 64 64" xmlns="http://www.w3.org/2000/svg">

<svg id="_图层_2" data-name="图层 2" xmlns="http://www.w3.org/2000/svg" viewBox="0 0 460.09 460.09">  <defs>

  <defs>    <style>

    <style>      .favicon-text {

      .cls-1 {        font-family: 'Georgia', 'Times New Roman', serif;

        fill: #fff;        font-size: 24px;

      }        font-weight: bold;

    </style>        fill: #000000;

  </defs>        font-style: italic;

  <g id="_图层_1-2" data-name="图层 1">        letter-spacing: -2px;

    <g>      }

      <path class="cls-1" d="M460.09,460.09H0V0H460.09V460.09ZM188.65,147c-2.65,22.65-5.27,44.99-7.92,67.56h-38.82v25.93h35.72c-2.91,25.68-5.79,51.07-8.68,76.67h-52.05v25.69h228.41v-25.79h-45.12c4.43-65.31,8.84-130.4,13.25-195.44H135.41c0,7.8,.07,15.39-.05,22.97-.03,2.02,.62,2.46,2.52,2.45,15.89-.07,31.78-.04,47.67-.04h3.1Z"/>    </style>

      <path d="M188.65,147h-3.1c-15.89,0-31.78-.03-47.67,.04-1.9,0-2.55-.43-2.52-2.45,.12-7.58,.05-15.17,.05-22.97h178.04c-4.41,65.04-8.82,130.12-13.25,195.44h45.12v25.79H116.9v-25.69h52.05c2.9-25.59,5.78-50.98,8.68-76.67h-35.72v-25.93h38.82c2.64-22.57,5.26-44.91,7.92-67.56Zm7.19,169.96h75.95c2.04-25.52,4.07-50.92,6.1-76.39h-73.41c-2.88,25.47-5.75,50.8-8.65,76.39Zm89.48-169.95h-3.05c-16.81,0-33.62,0-50.43,0-4.89,0-9.79,0-14.68-.03-1.02,0-1.72,.08-1.85,1.4-.33,3.59-.82,7.18-1.25,10.76-1.81,15.34-3.62,30.68-5.42,46.02-.36,3.05-.66,6.11-.99,9.22h72.31c1.78-22.46,3.55-44.82,5.34-67.38Z"/>  </defs>

      <path class="cls-1" d="M195.84,316.96c2.9-25.59,5.77-50.92,8.65-76.39h73.41c-2.03,25.47-4.06,50.86-6.1,76.39h-75.95Z"/>  <rect width="64" height="64" fill="white" rx="8"/>

      <path class="cls-1" d="M285.32,147.01c-1.79,22.56-3.56,44.92-5.34,67.38h-72.31c.33-3.10,.63-6.16,.99-9.22,1.8-15.34,3.61-30.68,5.42-46.02,.42-3.59,.91-7.17,1.25-10.76,.12-1.33,.82-1.41,1.85-1.4,4.89,.03,9.79,.02,14.68,.03,16.81,0,33.62,0,50.43,0h3.05Z"/>  <text x="32" y="42" text-anchor="middle" class="favicon-text">OYXR</text>

    </g></svg>

  </g>
</svg>